<svg width="512" height="512" viewBox="0 0 512 512" fill="none" xmlns="http://www.w3.org/2000/svg">
<circle cx="256" cy="256" r="248.5" stroke="#733635" stroke-width="15"/>
<circle cx="256" cy="256" r="223.5" fill="#733635" stroke="#733635" stroke-width="15"/>
<ellipse cx="40.5" cy="256" rx="9.5" ry="10" fill="white"/>
<ellipse cx="471.5" cy="256" rx="9.5" ry="10" fill="white"/>
<ellipse cx="256" cy="471.5" rx="10" ry="9.5" fill="white"/>
<ellipse cx="256" cy="40.5" rx="10" ry="9.5" fill="white"/>
<path d="M173.43 167.508L60 317H452L326.894 121L251.83 209.034L173.43 167.508Z" fill="#D9D9D9" fill-opacity="0.25"/>
<path d="M157.392 211.188H144.949C144.722 209.578 144.258 208.148 143.557 206.898C142.856 205.629 141.956 204.549 140.858 203.659C139.759 202.769 138.491 202.087 137.051 201.614C135.631 201.14 134.087 200.903 132.42 200.903C129.409 200.903 126.786 201.652 124.551 203.148C122.316 204.625 120.583 206.784 119.352 209.625C118.121 212.447 117.506 215.875 117.506 219.909C117.506 224.057 118.121 227.542 119.352 230.364C120.602 233.186 122.345 235.316 124.58 236.756C126.814 238.195 129.4 238.915 132.335 238.915C133.983 238.915 135.508 238.697 136.909 238.261C138.33 237.826 139.589 237.191 140.688 236.358C141.786 235.506 142.695 234.473 143.415 233.261C144.153 232.049 144.665 230.667 144.949 229.114L157.392 229.17C157.07 231.841 156.265 234.417 154.977 236.898C153.708 239.36 151.994 241.566 149.835 243.517C147.695 245.449 145.138 246.983 142.165 248.119C139.21 249.237 135.867 249.795 132.136 249.795C126.947 249.795 122.307 248.621 118.216 246.273C114.144 243.924 110.924 240.525 108.557 236.074C106.208 231.623 105.034 226.235 105.034 219.909C105.034 213.564 106.227 208.167 108.614 203.716C111 199.265 114.239 195.875 118.33 193.545C122.42 191.197 127.023 190.023 132.136 190.023C135.508 190.023 138.633 190.496 141.511 191.443C144.409 192.39 146.975 193.773 149.21 195.591C151.445 197.39 153.263 199.597 154.665 202.21C156.085 204.824 156.994 207.816 157.392 211.188ZM219.679 219.909C219.679 226.254 218.476 231.652 216.071 236.102C213.685 240.553 210.427 243.953 206.298 246.301C202.188 248.631 197.567 249.795 192.435 249.795C187.264 249.795 182.624 248.621 178.514 246.273C174.404 243.924 171.156 240.525 168.77 236.074C166.384 231.623 165.19 226.235 165.19 219.909C165.19 213.564 166.384 208.167 168.77 203.716C171.156 199.265 174.404 195.875 178.514 193.545C182.624 191.197 187.264 190.023 192.435 190.023C197.567 190.023 202.188 191.197 206.298 193.545C210.427 195.875 213.685 199.265 216.071 203.716C218.476 208.167 219.679 213.564 219.679 219.909ZM207.207 219.909C207.207 215.799 206.592 212.333 205.361 209.511C204.149 206.689 202.435 204.549 200.219 203.091C198.003 201.633 195.408 200.903 192.435 200.903C189.461 200.903 186.866 201.633 184.651 203.091C182.435 204.549 180.711 206.689 179.48 209.511C178.268 212.333 177.662 215.799 177.662 219.909C177.662 224.019 178.268 227.485 179.48 230.307C180.711 233.129 182.435 235.269 184.651 236.727C186.866 238.186 189.461 238.915 192.435 238.915C195.408 238.915 198.003 238.186 200.219 236.727C202.435 235.269 204.149 233.129 205.361 230.307C206.592 227.485 207.207 224.019 207.207 219.909ZM228.791 249V190.818H251.746C256.14 190.818 259.89 191.604 262.996 193.176C266.121 194.729 268.498 196.936 270.126 199.795C271.774 202.636 272.598 205.979 272.598 209.824C272.598 213.687 271.765 217.011 270.098 219.795C268.431 222.561 266.017 224.682 262.854 226.159C259.71 227.636 255.903 228.375 251.433 228.375H236.064V218.489H249.445C251.793 218.489 253.744 218.167 255.297 217.523C256.85 216.879 258.005 215.913 258.763 214.625C259.539 213.337 259.928 211.737 259.928 209.824C259.928 207.892 259.539 206.263 258.763 204.938C258.005 203.612 256.84 202.608 255.268 201.926C253.715 201.225 251.755 200.875 249.388 200.875H241.092V249H228.791ZM260.212 222.523L274.672 249H261.092L246.945 222.523H260.212ZM281.291 249V190.818H304.587C308.867 190.818 312.437 191.453 315.297 192.722C318.157 193.991 320.306 195.752 321.746 198.006C323.185 200.241 323.905 202.816 323.905 205.733C323.905 208.006 323.45 210.004 322.541 211.727C321.632 213.432 320.382 214.833 318.791 215.932C317.219 217.011 315.42 217.778 313.393 218.233V218.801C315.609 218.896 317.683 219.521 319.615 220.676C321.566 221.831 323.147 223.451 324.359 225.534C325.571 227.598 326.178 230.061 326.178 232.92C326.178 236.008 325.411 238.763 323.876 241.188C322.361 243.593 320.117 245.496 317.143 246.898C314.17 248.299 310.505 249 306.149 249H281.291ZM293.592 238.943H303.621C307.049 238.943 309.549 238.29 311.121 236.983C312.693 235.657 313.479 233.896 313.479 231.699C313.479 230.089 313.09 228.669 312.314 227.438C311.537 226.206 310.429 225.241 308.99 224.54C307.57 223.839 305.875 223.489 303.905 223.489H293.592V238.943ZM293.592 215.165H302.712C304.397 215.165 305.893 214.871 307.2 214.284C308.526 213.678 309.568 212.826 310.325 211.727C311.102 210.629 311.49 209.312 311.49 207.778C311.49 205.676 310.742 203.981 309.246 202.693C307.768 201.405 305.666 200.761 302.939 200.761H293.592V215.165ZM346.483 190.818V249H334.182V190.818H346.483ZM405.268 190.818V249H394.643L369.331 212.381H368.905V249H356.604V190.818H367.399L392.513 227.409H393.024V190.818H405.268Z" fill="white"/>
<path d="M203.057 344V285.818H215.358V311.472H216.125L237.062 285.818H251.807L230.216 311.869L252.062 344H237.347L221.409 320.08L215.358 327.466V344H203.057ZM254.804 285.818H268.582L281.849 310.875H282.418L295.685 285.818H309.463L288.241 323.432V344H276.026V323.432L254.804 285.818Z" fill="white"/>
</svg>
